REM DIRINDEX 1\2,1\3,1\4,1\5
REM DIRNAME folder01,folder02,folder03,folder04,folder05
TITLE ""
FILE "P1Q_t_1130-1139.mp3" MP3
  TRACK 01 AUDIO
    TITLE "3:cjc005_4296"
    INDEX 01 00:00:00
  TRACK 02 AUDIO
    TITLE "0:"
    INDEX 01 00:01:05
  TRACK 03 AUDIO
    TITLE "4:cjc005_4297"
    INDEX 01 00:01:32
  TRACK 04 AUDIO
    TITLE "0:"
    INDEX 01 00:03:04
  TRACK 05 AUDIO
    TITLE "5:cjc005_4298"
    INDEX 01 00:03:27
  TRACK 06 AUDIO
    TITLE "0:"
    INDEX 01 00:06:67
  TRACK 07 AUDIO
    TITLE "3:cjc005_4299"
    INDEX 01 00:07:47
  TRACK 08 AUDIO
    TITLE "0:"
    INDEX 01 00:08:52
  TRACK 09 AUDIO
    TITLE "4:cjc005_4300"
    INDEX 01 00:09:06
  TRACK 10 AUDIO
    TITLE "0:"
    INDEX 01 00:10:19
  TRACK 11 AUDIO
    TITLE "5:cjc005_4301"
    INDEX 01 00:10:45
  TRACK 12 AUDIO
    TITLE "0:"
    INDEX 01 00:13:67
  TRACK 13 AUDIO
    TITLE "3:cjc005_4302"
    INDEX 01 00:14:51
  TRACK 14 AUDIO
    TITLE "0:"
    INDEX 01 00:15:68
  TRACK 15 AUDIO
    TITLE "4:cjc005_4303"
    INDEX 01 00:16:20
  TRACK 16 AUDIO
    TITLE "0:"
    INDEX 01 00:17:65
  TRACK 17 AUDIO
    TITLE "5:cjc005_4304"
    INDEX 01 00:18:17
  TRACK 18 AUDIO
    TITLE "0:"
    INDEX 01 00:22:07
  TRACK 19 AUDIO
    TITLE "3:cjc005_4305"
    INDEX 01 00:22:64
  TRACK 20 AUDIO
    TITLE "0:"
    INDEX 01 00:24:10
  TRACK 21 AUDIO
    TITLE "4:cjc005_4306"
    INDEX 01 00:24:37
  TRACK 22 AUDIO
    TITLE "0:"
    INDEX 01 00:25:68
  TRACK 23 AUDIO
    TITLE "5:cjc005_4307"
    INDEX 01 00:26:17
  TRACK 24 AUDIO
    TITLE "0:"
    INDEX 01 00:29:64
  TRACK 25 AUDIO
    TITLE "3:cjc005_4308"
    INDEX 01 00:30:46
  TRACK 26 AUDIO
    TITLE "0:"
    INDEX 01 00:31:71
  TRACK 27 AUDIO
    TITLE "4:cjc005_4309"
    INDEX 01 00:32:19
  TRACK 28 AUDIO
    TITLE "0:"
    INDEX 01 00:33:50
  TRACK 29 AUDIO
    TITLE "5:cjc005_4310"
    INDEX 01 00:34:02
  TRACK 30 AUDIO
    TITLE "0:"
    INDEX 01 00:38:26
  TRACK 31 AUDIO
    TITLE "3:cjc005_4311"
    INDEX 01 00:39:05
  TRACK 32 AUDIO
    TITLE "0:"
    INDEX 01 00:40:07
  TRACK 33 AUDIO
    TITLE "4:cjc005_4312"
    INDEX 01 00:40:26
  TRACK 34 AUDIO
    TITLE "0:"
    INDEX 01 00:41:32
  TRACK 35 AUDIO
    TITLE "5:cjc005_4313"
    INDEX 01 00:41:59
  TRACK 36 AUDIO
    TITLE "0:"
    INDEX 01 00:44:73
  TRACK 37 AUDIO
    TITLE "3:cjc005_4314"
    INDEX 01 00:45:47
  TRACK 38 AUDIO
    TITLE "0:"
    INDEX 01 00:47:05
  TRACK 39 AUDIO
    TITLE "4:cjc005_4315"
    INDEX 01 00:47:25
  TRACK 40 AUDIO
    TITLE "0:"
    INDEX 01 00:48:48
  TRACK 41 AUDIO
    TITLE "5:cjc005_4316"
    INDEX 01 00:48:71
  TRACK 42 AUDIO
    TITLE "0:"
    INDEX 01 00:53:25
  TRACK 43 AUDIO
    TITLE "3:cjc005_4317"
    INDEX 01 00:54:01
  TRACK 44 AUDIO
    TITLE "0:"
    INDEX 01 00:55:14
  TRACK 45 AUDIO
    TITLE "4:cjc005_4318"
    INDEX 01 00:55:36
  TRACK 46 AUDIO
    TITLE "0:"
    INDEX 01 00:56:37
  TRACK 47 AUDIO
    TITLE "5:cjc005_4319"
    INDEX 01 00:56:63
  TRACK 48 AUDIO
    TITLE "0:"
    INDEX 01 01:01:19
  TRACK 49 AUDIO
    TITLE "3:cjc005_4320"
    INDEX 01 01:01:70
  TRACK 50 AUDIO
    TITLE "0:"
    INDEX 01 01:03:04
  TRACK 51 AUDIO
    TITLE "4:cjc005_4321"
    INDEX 01 01:03:31
  TRACK 52 AUDIO
    TITLE "0:"
    INDEX 01 01:04:58
  TRACK 53 AUDIO
    TITLE "5:cjc005_4322"
    INDEX 01 01:05:07
  TRACK 54 AUDIO
    TITLE "0:"
    INDEX 01 01:08:19
  TRACK 55 AUDIO
    TITLE "3:cjc005_4323"
    INDEX 01 01:08:70
  TRACK 56 AUDIO
    TITLE "0:"
    INDEX 01 01:10:14
  TRACK 57 AUDIO
    TITLE "4:cjc005_4324"
    INDEX 01 01:10:43
  TRACK 58 AUDIO
    TITLE "0:"
    INDEX 01 01:11:68
  TRACK 59 AUDIO
    TITLE "5:cjc005_4325"
    INDEX 01 01:12:17
  TRACK 60 AUDIO
    TITLE "0:"
    INDEX 01 01:15:62
